{"glyphs":{"D":{"ha":964,"x_min":118,"x_max":904,"o":"m 636 960 q 730 905 682 939 q 816 817 778 871 q 879 688 854 764 q 904 508 904 613 q 865 294 904 381 q 765 150 826 207 q 626 63 703 93 q 474 17 550 32 q 331 1 399 3 q 222 -1 264 -1 l 118 -1 l 118 1019 l 222 1019 q 317 1019 267 1019 q 422 1013 368 1018 q 531 994 476 1007 q 636 960 585 982 m 328 211 q 496 238 426 218 q 610 294 565 258 q 674 383 654 331 q 694 508 694 436 q 672 649 694 593 q 604 738 650 704 q 490 788 558 772 q 328 807 421 803 l 328 211 z "},"F":{"ha":868,"x_min":117,"x_max":800,"o":"m 800 807 l 326 807 l 326 578 l 782 578 l 782 368 l 326 368 l 326 -1 l 117 -1 l 117 1017 l 800 1017 l 800 807 l 800 807 z "},"G":{"ha":1042,"x_min":56,"x_max":1006,"o":"m 563 560 l 1006 560 l 1006 261 q 926 155 972 203 q 822 72 879 107 q 699 19 765 38 q 563 0 633 0 q 366 40 458 0 q 205 149 274 81 q 96 310 136 218 q 56 508 56 403 q 96 706 56 614 q 205 867 136 799 q 366 976 274 936 q 563 1017 458 1017 q 808 953 697 1017 q 988 786 918 890 l 835 631 q 726 758 799 710 q 563 807 654 807 q 447 783 501 807 q 353 719 393 760 q 289 625 313 679 q 265 508 265 571 q 289 392 265 446 q 353 297 313 338 q 447 232 393 256 q 563 208 501 208 q 631 218 596 208 q 701 247 667 228 q 765 292 736 265 q 815 351 794 318 l 563 351 l 563 560 z "},"H":{"ha":1022,"x_min":136,"x_max":917,"o":"m 703 1017 l 917 1017 l 917 -3 l 703 -3 l 703 371 l 349 371 l 349 -3 l 136 -3 l 136 1017 l 349 1017 l 349 583 l 703 583 l 703 1017 l 703 1017 z "},"I":{"ha":444,"x_min":117,"x_max":328,"o":"m 117 1017 l 328 1017 l 328 -1 l 117 -1 l 117 1017 l 117 1017 z "},"J":{"ha":819,"x_min":56,"x_max":721,"o":"m 721 1022 l 721 465 q 701 324 721 404 q 635 170 682 243 q 508 47 588 97 q 307 -3 428 -3 q 175 13 240 -3 q 56 69 110 29 l 218 232 q 256 216 232 218 q 307 214 279 214 q 390 228 356 214 q 446 267 424 243 q 480 319 468 290 q 497 376 492 349 q 503 428 503 404 q 504 465 504 451 l 504 1022 l 721 1022 z "},"K":{"ha":1061,"x_min":138,"x_max":1025,"o":"m 918 1019 q 908 876 918 942 q 880 755 897 810 q 840 656 863 700 q 796 579 818 613 q 675 451 742 500 q 790 432 740 451 q 877 381 840 413 q 939 308 914 349 q 981 225 964 267 q 1025 -1 1018 125 l 815 -1 q 806 80 815 44 q 781 142 796 115 q 746 186 765 168 q 706 217 726 204 q 597 249 658 244 l 346 249 l 346 -1 l 138 -1 l 138 1019 l 346 1019 l 346 556 q 462 576 411 556 q 550 628 513 596 q 615 701 588 660 q 660 788 642 743 q 713 1019 701 889 l 918 1019 z "},"L":{"ha":868,"x_min":97,"x_max":789,"o":"m 789 -1 l 97 -1 l 97 1018 l 310 1018 l 310 213 l 789 213 l 789 -1 l 789 -1 z "},"M":{"ha":1292,"x_min":139,"x_max":1133,"o":"m 356 419 l 356 -1 l 139 -1 l 139 1019 l 364 1019 l 639 322 l 910 1019 l 1133 1019 l 1133 -1 l 917 -1 l 917 413 l 746 -1 l 532 -1 l 356 419 l 356 419 z "},"N":{"ha":1158,"x_min":138,"x_max":1032,"o":"m 815 358 l 815 1018 l 1032 1018 l 1032 -1 l 793 -1 l 354 660 l 354 -1 l 138 -1 l 138 1019 l 376 1019 l 815 358 l 815 358 z "},"P":{"ha":1022,"x_min":139,"x_max":965,"o":"m 349 -1 l 139 -1 l 139 1019 l 633 1019 q 742 1000 683 1019 q 849 938 800 981 q 932 825 899 894 q 965 656 965 756 q 853 351 965 460 q 778 296 817 315 q 705 267 739 276 q 647 256 671 257 q 614 254 622 254 l 349 254 l 349 -1 m 349 464 l 618 464 l 617 464 q 656 469 632 464 q 701 495 679 475 q 738 553 722 515 q 754 656 754 590 q 742 734 754 704 q 710 780 729 764 q 670 802 692 796 q 632 808 649 808 l 349 808 l 349 464 z "},"Q":{"ha":1293,"x_min":143,"x_max":1157,"o":"m 1157 511 q 1133 356 1157 429 q 1064 219 1108 282 l 1138 147 l 990 -1 l 913 76 q 788 22 854 42 q 650 3 722 3 q 453 43 546 3 q 292 152 361 83 q 183 313 224 221 q 143 511 143 406 q 183 709 143 617 q 292 870 224 801 q 453 979 361 939 q 650 1019 546 1019 q 847 979 754 1019 q 1008 870 939 939 q 1117 709 1076 801 q 1157 511 1157 617 m 650 213 q 757 232 706 213 l 700 289 l 847 438 l 913 371 q 947 511 947 438 q 924 628 947 574 q 860 723 900 682 q 765 788 819 764 q 650 811 711 811 q 534 788 589 811 q 439 723 479 764 q 375 628 399 682 q 351 511 351 574 q 375 394 351 449 q 439 300 399 340 q 534 236 479 260 q 650 213 589 213 z "},"R":{"ha":1040,"x_min":139,"x_max":1026,"o":"m 874 361 q 943 280 914 325 q 991 187 972 235 q 1018 90 1010 139 q 1026 -1 1026 42 l 922 -1 l 817 -1 q 815 31 817 8 q 806 82 813 54 q 785 139 799 110 q 747 193 771 168 q 686 233 722 218 q 599 249 650 249 l 347 249 l 347 -1 l 139 -1 l 139 1019 l 599 1019 q 629 1017 604 1019 q 690 1005 654 1015 q 767 974 725 994 q 847 914 808 953 q 963 597 963 799 q 938 460 963 518 q 874 361 914 401 m 599 458 q 642 463 615 458 q 693 483 668 468 q 735 524 718 497 q 753 597 753 551 q 734 712 753 669 q 690 776 715 754 q 638 803 664 797 q 597 810 611 810 l 347 810 l 347 458 l 599 458 z "},"S":{"ha":954,"x_min":85,"x_max":856,"o":"m 463 -11 q 317 14 385 -11 q 197 81 249 39 q 115 178 144 122 q 85 297 85 235 l 296 297 q 308 268 296 285 q 341 236 319 251 q 393 210 363 221 q 463 200 424 200 q 561 215 525 200 q 615 247 597 229 q 638 278 633 264 q 643 293 643 293 q 641 326 643 310 q 628 357 639 343 q 561 394 608 381 q 444 407 514 407 q 349 417 392 407 q 275 441 307 426 q 219 474 243 456 q 181 510 196 492 q 133 580 150 543 q 110 649 117 617 q 102 706 103 682 q 101 742 101 731 q 104 773 101 751 q 116 821 107 794 q 141 877 125 847 q 185 935 157 907 q 467 1036 286 1036 q 744 932 644 1036 q 799 857 779 896 q 826 785 818 818 q 836 728 835 751 q 838 699 838 704 l 626 706 l 626 703 q 621 741 626 719 q 599 781 615 763 q 550 813 582 800 q 467 825 518 825 q 387 815 417 825 q 341 792 357 806 q 319 763 325 778 q 314 738 314 747 l 314 728 l 313 726 q 315 699 313 713 q 322 674 318 688 q 338 650 326 661 q 444 618 369 618 q 749 533 642 618 q 856 292 856 447 q 834 194 856 247 q 766 96 813 142 q 644 19 719 50 q 463 -11 569 -11 z "},"T":{"ha":839,"x_min":93,"x_max":778,"o":"m 778 1018 l 778 807 l 542 807 l 542 -1 l 329 -1 l 329 807 l 93 807 l 93 1018 l 778 1018 l 778 1018 z "},"U":{"ha":1081,"x_min":136,"x_max":963,"o":"m 963 1018 l 963 463 q 954 373 963 422 q 927 272 946 324 q 877 172 908 221 q 800 84 846 122 q 692 23 754 46 q 550 0 631 0 l 549 0 q 394 28 465 0 q 271 110 324 56 q 194 217 221 160 q 154 327 167 275 q 139 417 142 379 q 136 464 136 456 l 136 1018 l 349 1018 l 349 463 q 350 429 349 451 q 358 379 351 407 q 378 322 365 351 q 413 268 390 293 q 469 228 436 243 q 550 213 503 213 q 660 246 621 213 q 720 322 700 279 q 745 407 740 365 q 750 464 750 449 l 750 1018 l 963 1018 z "},"V":{"ha":1081,"x_min":54,"x_max":1032,"o":"m 668 0 l 418 0 l 54 1018 l 285 1018 l 543 293 l 801 1018 l 1032 1018 l 668 0 l 668 0 z "},"W":{"ha":1293,"x_min":65,"x_max":1261,"o":"m 518 -1 l 303 -1 l 65 1019 l 279 1019 l 413 444 l 551 1019 l 767 1019 l 885 440 l 1046 1019 l 1261 1019 l 976 -1 l 761 -1 l 650 547 l 518 -1 l 518 -1 z "},"X":{"ha":1176,"x_min":158,"x_max":1039,"o":"m 1039 1018 l 721 492 l 1018 1 l 772 1 l 599 289 l 425 1 l 179 1 l 476 492 l 158 1018 l 403 1018 l 599 693 l 794 1018 l 1039 1018 l 1039 1018 z "},"Y":{"ha":1022,"x_min":79,"x_max":940,"o":"m 940 1017 l 617 324 l 617 1 l 404 1 l 404 321 l 79 1017 l 308 1017 l 511 524 l 714 1017 l 940 1017 l 940 1017 z "},"Z":{"ha":1081,"x_min":142,"x_max":949,"o":"m 893 -3 l 142 -3 l 594 811 l 176 811 l 176 1018 l 949 1018 l 496 206 l 893 206 l 893 -3 l 893 -3 z "},"O":{"ha":1128,"x_min":74,"x_max":1090,"o":"m 582 0 q 384 40 476 0 q 223 150 292 81 q 114 312 154 219 q 74 510 74 404 q 114 708 74 615 q 223 869 154 800 q 384 979 292 939 q 582 1019 476 1019 q 780 979 688 1019 q 941 869 872 939 q 1050 708 1010 800 q 1090 510 1090 615 q 1050 312 1090 404 q 941 150 1010 219 q 780 40 872 81 q 582 0 688 0 m 582 810 q 465 786 519 810 q 371 722 411 763 q 307 626 331 681 q 283 510 283 572 q 307 393 283 447 q 371 298 331 339 q 465 233 411 257 q 582 210 519 210 q 697 233 643 210 q 792 298 751 257 q 857 393 833 339 q 881 510 881 447 q 857 626 881 572 q 792 722 833 681 q 697 786 751 763 q 582 810 643 810 z "},"B":{"ha":965,"x_min":117,"x_max":910,"o":"m 767 543 q 849 469 819 513 q 891 387 878 426 q 907 318 904 347 q 910 286 910 289 q 888 163 910 213 q 831 82 867 114 q 750 33 796 50 q 656 8 704 15 q 558 -1 607 0 q 469 -1 510 -1 l 117 -1 l 117 1017 l 469 1017 q 581 999 521 1017 q 693 942 642 982 q 779 840 744 903 q 814 686 814 776 q 810 640 814 658 q 801 605 807 621 q 786 575 794 589 q 767 543 778 561 m 335 608 l 469 608 q 508 608 486 608 q 549 612 531 607 q 581 633 568 617 q 594 686 594 650 q 579 747 594 725 q 543 781 564 769 q 501 794 522 792 q 469 797 481 797 l 335 797 l 335 608 m 488 217 q 624 234 582 217 q 667 301 667 251 q 624 367 667 350 q 488 383 582 383 l 335 383 l 335 217 l 488 217 z "},"E":{"ha":926,"x_min":136,"x_max":824,"o":"m 824 807 l 347 807 l 347 600 l 806 600 l 806 388 l 347 388 l 347 213 l 824 213 l 824 0 l 136 0 l 136 1018 l 824 1018 l 824 807 l 824 807 z "},"A":{"ha":983,"x_min":6,"x_max":983,"o":"m 753 -1 l 700 149 l 289 149 l 236 -1 l 6 -1 l 369 1018 l 619 1018 l 983 -1 l 753 -1 m 364 358 l 625 358 l 494 724 l 364 358 z "}," ":{"ha":581,"x_min":0,"x_max":0,"o":""},"a":{"ha":983,"x_min":6,"x_max":983,"o":"m 753 -1 l 700 149 l 289 149 l 236 -1 l 6 -1 l 369 1018 l 619 1018 l 983 -1 l 753 -1 m 364 358 l 625 358 l 494 724 l 364 358 z "},"b":{"ha":965,"x_min":117,"x_max":910,"o":"m 767 543 q 849 469 819 513 q 891 387 878 426 q 907 318 904 347 q 910 286 910 289 q 888 163 910 213 q 831 82 867 114 q 750 33 796 50 q 656 8 704 15 q 558 -1 607 0 q 469 -1 510 -1 l 117 -1 l 117 1017 l 469 1017 q 581 999 521 1017 q 693 942 642 982 q 779 840 744 903 q 814 686 814 776 q 810 640 814 658 q 801 605 807 621 q 786 575 794 589 q 767 543 778 561 m 335 608 l 469 608 q 508 608 486 608 q 549 612 531 607 q 581 633 568 617 q 594 686 594 650 q 579 747 594 725 q 543 781 564 769 q 501 794 522 792 q 469 797 481 797 l 335 797 l 335 608 m 488 217 q 624 234 582 217 q 667 301 667 251 q 624 367 667 350 q 488 383 582 383 l 335 383 l 335 217 l 488 217 z "},"c":{"ha":1042,"x_min":51,"x_max":992,"o":"m 992 242 q 913 143 958 188 q 811 67 867 99 q 692 17 756 35 q 560 0 628 0 q 362 40 454 0 q 201 150 269 81 q 92 312 132 219 q 51 510 51 404 q 92 708 51 615 q 201 869 132 800 q 362 979 269 939 q 560 1019 454 1019 q 692 1002 628 1019 q 811 953 756 985 q 913 876 867 921 q 992 776 958 831 l 836 621 q 792 697 819 663 q 729 757 765 732 q 650 796 693 782 q 560 810 607 810 q 444 786 499 810 q 349 722 389 763 q 285 626 308 681 q 261 510 261 572 q 285 393 261 447 q 349 298 308 339 q 444 233 389 257 q 560 210 499 210 q 650 224 607 210 q 729 263 693 238 q 792 322 765 288 q 836 397 819 356 l 992 242 z "},"d":{"ha":964,"x_min":118,"x_max":904,"o":"m 636 960 q 730 905 682 939 q 816 817 778 871 q 879 688 854 764 q 904 508 904 613 q 865 294 904 381 q 765 150 826 207 q 626 63 703 93 q 474 17 550 32 q 331 1 399 3 q 222 -1 264 -1 l 118 -1 l 118 1019 l 222 1019 q 317 1019 267 1019 q 422 1013 368 1018 q 531 994 476 1007 q 636 960 585 982 m 328 211 q 496 238 426 218 q 610 294 565 258 q 674 383 654 331 q 694 508 694 436 q 672 649 694 593 q 604 738 650 704 q 490 788 558 772 q 328 807 421 803 l 328 211 z "},"f":{"ha":868,"x_min":117,"x_max":800,"o":"m 800 807 l 326 807 l 326 578 l 782 578 l 782 368 l 326 368 l 326 -1 l 117 -1 l 117 1017 l 800 1017 l 800 807 l 800 807 z "},"g":{"ha":1042,"x_min":56,"x_max":1006,"o":"m 563 560 l 1006 560 l 1006 261 q 926 155 972 203 q 822 72 879 107 q 699 19 765 38 q 563 0 633 0 q 366 40 458 0 q 205 149 274 81 q 96 310 136 218 q 56 508 56 403 q 96 706 56 614 q 205 867 136 799 q 366 976 274 936 q 563 1017 458 1017 q 808 953 697 1017 q 988 786 918 890 l 835 631 q 726 758 799 710 q 563 807 654 807 q 447 783 501 807 q 353 719 393 760 q 289 625 313 679 q 265 508 265 571 q 289 392 265 446 q 353 297 313 338 q 447 232 393 256 q 563 208 501 208 q 631 218 596 208 q 701 247 667 228 q 765 292 736 265 q 815 351 794 318 l 563 351 l 563 560 z "},"h":{"ha":1022,"x_min":136,"x_max":917,"o":"m 703 1017 l 917 1017 l 917 -3 l 703 -3 l 703 371 l 349 371 l 349 -3 l 136 -3 l 136 1017 l 349 1017 l 349 583 l 703 583 l 703 1017 l 703 1017 z "},"i":{"ha":444,"x_min":117,"x_max":328,"o":"m 117 1017 l 328 1017 l 328 -1 l 117 -1 l 117 1017 l 117 1017 z "},"j":{"ha":819,"x_min":56,"x_max":721,"o":"m 721 1022 l 721 465 q 701 324 721 404 q 635 170 682 243 q 508 47 588 97 q 307 -3 428 -3 q 175 13 240 -3 q 56 69 110 29 l 218 232 q 256 216 232 218 q 307 214 279 214 q 390 228 356 214 q 446 267 424 243 q 480 319 468 290 q 497 376 492 349 q 503 428 503 404 q 504 465 504 451 l 504 1022 l 721 1022 z "},"k":{"ha":1061,"x_min":138,"x_max":1025,"o":"m 918 1019 q 908 876 918 942 q 880 755 897 810 q 840 656 863 700 q 796 579 818 613 q 675 451 742 500 q 790 432 740 451 q 877 381 840 413 q 939 308 914 349 q 981 225 964 267 q 1025 -1 1018 125 l 815 -1 q 806 80 815 44 q 781 142 796 115 q 746 186 765 168 q 706 217 726 204 q 597 249 658 244 l 346 249 l 346 -1 l 138 -1 l 138 1019 l 346 1019 l 346 556 q 462 576 411 556 q 550 628 513 596 q 615 701 588 660 q 660 788 642 743 q 713 1019 701 889 l 918 1019 z "},"l":{"ha":868,"x_min":97,"x_max":789,"o":"m 789 -1 l 97 -1 l 97 1018 l 310 1018 l 310 213 l 789 213 l 789 -1 l 789 -1 z "},"m":{"ha":1292,"x_min":139,"x_max":1133,"o":"m 356 419 l 356 -1 l 139 -1 l 139 1019 l 364 1019 l 639 322 l 910 1019 l 1133 1019 l 1133 -1 l 917 -1 l 917 413 l 746 -1 l 532 -1 l 356 419 l 356 419 z "},"n":{"ha":1158,"x_min":138,"x_max":1032,"o":"m 815 358 l 815 1018 l 1032 1018 l 1032 -1 l 793 -1 l 354 660 l 354 -1 l 138 -1 l 138 1019 l 376 1019 l 815 358 l 815 358 z "},"o":{"ha":1128,"x_min":74,"x_max":1090,"o":"m 582 0 q 384 40 476 0 q 223 150 292 81 q 114 312 154 219 q 74 510 74 404 q 114 708 74 615 q 223 869 154 800 q 384 979 292 939 q 582 1019 476 1019 q 780 979 688 1019 q 941 869 872 939 q 1050 708 1010 800 q 1090 510 1090 615 q 1050 312 1090 404 q 941 150 1010 219 q 780 40 872 81 q 582 0 688 0 m 582 810 q 465 786 519 810 q 371 722 411 763 q 307 626 331 681 q 283 510 283 572 q 307 393 283 447 q 371 298 331 339 q 465 233 411 257 q 582 210 519 210 q 697 233 643 210 q 792 298 751 257 q 857 393 833 339 q 881 510 881 447 q 857 626 881 572 q 792 722 833 681 q 697 786 751 763 q 582 810 643 810 z "},"p":{"ha":1022,"x_min":139,"x_max":965,"o":"m 349 -1 l 139 -1 l 139 1019 l 633 1019 q 742 1000 683 1019 q 849 938 800 981 q 932 825 899 894 q 965 656 965 756 q 853 351 965 460 q 778 296 817 315 q 705 267 739 276 q 647 256 671 257 q 614 254 622 254 l 349 254 l 349 -1 m 349 464 l 618 464 l 617 464 q 656 469 632 464 q 701 495 679 475 q 738 553 722 515 q 754 656 754 590 q 742 734 754 704 q 710 780 729 764 q 670 802 692 796 q 632 808 649 808 l 349 808 l 349 464 z "},"q":{"ha":1293,"x_min":143,"x_max":1157,"o":"m 1157 511 q 1133 356 1157 429 q 1064 219 1108 282 l 1138 147 l 990 -1 l 913 76 q 788 22 854 42 q 650 3 722 3 q 453 43 546 3 q 292 152 361 83 q 183 313 224 221 q 143 511 143 406 q 183 709 143 617 q 292 870 224 801 q 453 979 361 939 q 650 1019 546 1019 q 847 979 754 1019 q 1008 870 939 939 q 1117 709 1076 801 q 1157 511 1157 617 m 650 213 q 757 232 706 213 l 700 289 l 847 438 l 913 371 q 947 511 947 438 q 924 628 947 574 q 860 723 900 682 q 765 788 819 764 q 650 811 711 811 q 534 788 589 811 q 439 723 479 764 q 375 628 399 682 q 351 511 351 574 q 375 394 351 449 q 439 300 399 340 q 534 236 479 260 q 650 213 589 213 z "},"r":{"ha":1040,"x_min":139,"x_max":1026,"o":"m 874 361 q 943 280 914 325 q 991 187 972 235 q 1018 90 1010 139 q 1026 -1 1026 42 l 922 -1 l 817 -1 q 815 31 817 8 q 806 82 813 54 q 785 139 799 110 q 747 193 771 168 q 686 233 722 218 q 599 249 650 249 l 347 249 l 347 -1 l 139 -1 l 139 1019 l 599 1019 q 629 1017 604 1019 q 690 1005 654 1015 q 767 974 725 994 q 847 914 808 953 q 963 597 963 799 q 938 460 963 518 q 874 361 914 401 m 599 458 q 642 463 615 458 q 693 483 668 468 q 735 524 718 497 q 753 597 753 551 q 734 712 753 669 q 690 776 715 754 q 638 803 664 797 q 597 810 611 810 l 347 810 l 347 458 l 599 458 z "},"s":{"ha":954,"x_min":85,"x_max":856,"o":"m 463 -11 q 317 14 385 -11 q 197 81 249 39 q 115 178 144 122 q 85 297 85 235 l 296 297 q 308 268 296 285 q 341 236 319 251 q 393 210 363 221 q 463 200 424 200 q 561 215 525 200 q 615 247 597 229 q 638 278 633 264 q 643 293 643 293 q 641 326 643 310 q 628 357 639 343 q 561 394 608 381 q 444 407 514 407 q 349 417 392 407 q 275 441 307 426 q 219 474 243 456 q 181 510 196 492 q 133 580 150 543 q 110 649 117 617 q 102 706 103 682 q 101 742 101 731 q 104 773 101 751 q 116 821 107 794 q 141 877 125 847 q 185 935 157 907 q 467 1036 286 1036 q 744 932 644 1036 q 799 857 779 896 q 826 785 818 818 q 836 728 835 751 q 838 699 838 704 l 626 706 l 626 703 q 621 741 626 719 q 599 781 615 763 q 550 813 582 800 q 467 825 518 825 q 387 815 417 825 q 341 792 357 806 q 319 763 325 778 q 314 738 314 747 l 314 728 l 313 726 q 315 699 313 713 q 322 674 318 688 q 338 650 326 661 q 444 618 369 618 q 749 533 642 618 q 856 292 856 447 q 834 194 856 247 q 766 96 813 142 q 644 19 719 50 q 463 -11 569 -11 z "},"t":{"ha":839,"x_min":93,"x_max":778,"o":"m 778 1018 l 778 807 l 542 807 l 542 -1 l 329 -1 l 329 807 l 93 807 l 93 1018 l 778 1018 l 778 1018 z "},"u":{"ha":1081,"x_min":136,"x_max":963,"o":"m 963 1018 l 963 463 q 954 373 963 422 q 927 272 946 324 q 877 172 908 221 q 800 84 846 122 q 692 23 754 46 q 550 0 631 0 l 549 0 q 394 28 465 0 q 271 110 324 56 q 194 217 221 160 q 154 327 167 275 q 139 417 142 379 q 136 464 136 456 l 136 1018 l 349 1018 l 349 463 q 350 429 349 451 q 358 379 351 407 q 378 322 365 351 q 413 268 390 293 q 469 228 436 243 q 550 213 503 213 q 660 246 621 213 q 720 322 700 279 q 745 407 740 365 q 750 464 750 449 l 750 1018 l 963 1018 z "},"v":{"ha":1081,"x_min":54,"x_max":1032,"o":"m 668 0 l 418 0 l 54 1018 l 285 1018 l 543 293 l 801 1018 l 1032 1018 l 668 0 l 668 0 z "},"w":{"ha":1293,"x_min":65,"x_max":1261,"o":"m 518 -1 l 303 -1 l 65 1019 l 279 1019 l 413 444 l 551 1019 l 767 1019 l 885 440 l 1046 1019 l 1261 1019 l 976 -1 l 761 -1 l 650 547 l 518 -1 l 518 -1 z "},"x":{"ha":1176,"x_min":158,"x_max":1039,"o":"m 1039 1018 l 721 492 l 1018 1 l 772 1 l 599 289 l 425 1 l 179 1 l 476 492 l 158 1018 l 403 1018 l 599 693 l 794 1018 l 1039 1018 l 1039 1018 z "},"y":{"ha":1022,"x_min":79,"x_max":940,"o":"m 940 1017 l 617 324 l 617 1 l 404 1 l 404 321 l 79 1017 l 308 1017 l 511 524 l 714 1017 l 940 1017 l 940 1017 z "},"z":{"ha":1081,"x_min":142,"x_max":949,"o":"m 893 -3 l 142 -3 l 594 811 l 176 811 l 176 1018 l 949 1018 l 496 206 l 893 206 l 893 -3 l 893 -3 z "},"C":{"ha":1042,"x_min":51,"x_max":992,"o":"m 992 242 q 913 143 958 188 q 811 67 867 99 q 692 17 756 35 q 560 0 628 0 q 362 40 454 0 q 201 150 269 81 q 92 312 132 219 q 51 510 51 404 q 92 708 51 615 q 201 869 132 800 q 362 979 269 939 q 560 1019 454 1019 q 692 1002 628 1019 q 811 953 756 985 q 913 876 867 921 q 992 776 958 831 l 836 621 q 792 697 819 663 q 729 757 765 732 q 650 796 693 782 q 560 810 607 810 q 444 786 499 810 q 349 722 389 763 q 285 626 308 681 q 261 510 261 572 q 285 393 261 447 q 349 298 308 339 q 444 233 389 257 q 560 210 499 210 q 650 224 607 210 q 729 263 693 238 q 792 322 765 288 q 836 397 819 356 l 992 242 z "},"e":{"ha":926,"x_min":136,"x_max":824,"o":"m 824 807 l 347 807 l 347 600 l 806 600 l 806 388 l 347 388 l 347 213 l 824 213 l 824 0 l 136 0 l 136 1018 l 824 1018 l 824 807 l 824 807 z "}}}
